<?xml version="1.0" encoding="UTF-8" standalone="no"?>
<svg xmlns="http://www.w3.org/2000/svg" viewBox="0 0 405.64 328.79" version="1.1">
  <!-- Public domain (CC0) from OpenClipart / FreeSVG – badminton players -->
  <g transform="translate(0,328.79) scale(0.1,-0.1)" fill="#f8fafc" stroke="none">
    <path d="M1620 3113 c-19 -20 -20 -33 -20 -163 0 -142 -1 -146 -35 -210 -34
-65 -35 -73 -35 -215 0 -134 2 -152 22 -190 28 -53 68 -86 118 -98 49 -12 114 10
147 49 24 28 28 45 34 125 6 83 7 92 31 114 22 20 25 30 25 90 0 63 -2 70 -33
105 -28 32 -33 45 -33 85 0 49 -14 89 -41 120 -21 24 -64 53 -83 57 -6 1 -20 -7
-32 -20 0 0 -26 15 -45 15 -19 0 -35 -9 -45 -19z"/>
    <path d="M2385 2871 c-27 -18 -46 -49 -55 -90 -6 -30 -17 -48 -38 -65 -28 -22
-30 -28 -30 -96 0 -67 2 -74 33 -110 28 -33 33 -46 33 -88 0 -40 -5 -54 -30 -82
-28 -33 -30 -41 -30 -128 0 -89 1 -94 35 -145 34 -52 35 -57 35 -185 0 -128 1
-134 25 -160 33 -36 79 -49 129 -37 48 12 90 48 116 100 18 36 20 58 20 185 0
138 -1 146 -32 205 -33 61 -33 66 -33 210 0 130 -2 151 -20 178 -25 39 -82 52
-128 23 -16 -10 -34 -18 -40 -18 -5 0 -18 6 -28 14 -21 16 -45 14 -70 -3z"/>
    <path d="M980 2358 c-25 -13 -51 -48 -66 -89 -12 -33 -15 -80 -15 -249 0 -218
5 -247 49 -285 28 -24 37 -26 90 -26 53 0 62 3 90 26 44 38 49 67 49 285 0 169
-3 216 -15 249 -22 61 -73 105 -119 105 -14 0 -41 -7 -63 -16z"/>
    <path d="M2780 2205 c-38 -20 -60 -55 -70 -111 -8 -46 -10 -563 -2 -620 11 -80
48 -124 112 -134 48 -7 95 18 122 65 21 37 23 52 26 245 3 194 2 208 -18 255
-33 79 -98 122 -170 100z"/>
    <path d="M1680 1540 c-14 -14 -20 -33 -20 -60 0 -45 23 -80 60 -90 50 -14 100
36 86 86 -16 58 -80 99 -126 64z"/>
  </g>
  <!-- motion accents -->
  <path d="M320 40c35-10 70-6 95 14" stroke="#4ade80" stroke-width="3" stroke-linecap="round" fill="none" opacity="0.65"/>
  <path d="M325 60c38-8 72-2 95 16" stroke="#4ade80" stroke-width="2.5" stroke-linecap="round" fill="none" opacity="0.35"/>
</svg>
